<svg xmlns="http://www.w3.org/2000/svg" xmlns:xlink="http://www.w3.org/1999/xlink" id="Layer_1" data-name="Layer 1" width="989px" height="645px"><defs><filter id="selectionOverlayFilter" x="-25%" y="-25%" width="150%" height="150%"><feColorMatrix in="SourceGraphic" values="0 0 0 0 0 0 0 0 0 0 0 0 1 1 0 0 0 0 1 0 " result="cMatrixOut"/><feOffset in="cMatrixOut" result="offOut"/><feBlend in2="SourceGraphic" in="offOut" mode="normal"/></filter><filter id="hoveringOverlayFilter" x="-25%" y="-25%" width="150%" height="150%"><feColorMatrix in="SourceGraphic" values="1 0 0 1 0 0 1 0 1 0 0 0 0 0 0 0 0 0 1 0 " result="cMatrixOut"/><feOffset in="cMatrixOut" result="offOut"/><feBlend in2="SourceGraphic" in="offOut" mode="normal"/></filter><filter id="selectionFlaggingHoveringFilter" x="-25%" y="-25%" width="150%" height="150%"><feColorMatrix in="SourceGraphic" values="0 0 0 0 0 0 0 0 0 0 0 0 1 1 0 0 0 0 1 0 " result="cMatrixOut1"/><feMorphology in="cMatrixOut1" operator="dilate" radius="4" result="morphoOut1"/><feColorMatrix in="SourceGraphic" values="1 0 0 1 0 0 0 0 0 0 0 0 1 1 0 0 0 0 1 0 " result="cMatrixOut2"/><feMorphology in="cMatrixOut2" operator="dilate" radius="7" result="morphoOut2"/><feOffset in="SourceGraphic" result="offOut"/><feGaussianBlur in="offOut" stdDeviation="10" result="blurOut"/><feMerge result="mergeOut"><feMergeNode in="blurOut"/><feMergeNode in="morphoOut2"/><feMergeNode in="morphoOut1"/><feMergeNode in="SourceGraphic"/></feMerge></filter><filter id="selectionFlaggingFilter" x="-25%" y="-25%" width="150%" height="150%"><feColorMatrix in="SourceGraphic" values="0 0 0 0 0 0 0 0 0 0 0 0 1 1 0 0 0 0 1 0 " result="cMatrixOut1"/><feMorphology in="cMatrixOut1" operator="dilate" radius="4" result="morphoOut1"/><feColorMatrix in="SourceGraphic" values="1 0 0 1 0 0 0 0 0 0 0 0 1 1 0 0 0 0 1 0 " result="cMatrixOut2"/><feMorphology in="cMatrixOut2" operator="dilate" radius="7" result="morphoOut2"/><feMerge result="mergeOut"><feMergeNode in="morphoOut2"/><feMergeNode in="morphoOut1"/><feMergeNode in="SourceGraphic"/></feMerge></filter><filter id="flaggingHoveringFilter" x="-25%" y="-25%" width="150%" height="150%"><feColorMatrix in="SourceGraphic" values="1 0 0 1 0 0 0 0 0 0 0 0 1 1 0 0 0 0 1 0 " result="cMatrixOut"/><feMorphology in="cMatrixOut" operator="dilate" radius="4" result="morphoOut"/><feMerge result="mergeOut"><feMergeNode in="morphoOut"/><feMergeNode in="SourceGraphic"/></feMerge><feOffset in="SourceGraphic" result="offOut"/><feGaussianBlur in="offOut" stdDeviation="10" result="blurOut"/><feMerge><feMergeNode in="blurOut"/><feMergeNode in="mergeOut"/></feMerge></filter><filter id="selectionHoveredFilter" x="-25%" y="-25%" width="150%" height="150%"><feColorMatrix in="SourceGraphic" values="0 0 0 0 0 0 0 0 0 0 0 0 1 1 0 0 0 0 1 0 " result="cMatrixOut"/><feMorphology in="cMatrixOut" operator="dilate" radius="4" result="morphoOut"/><feMerge result="mergeOut"><feMergeNode in="morphoOut"/><feMergeNode in="SourceGraphic"/></feMerge><feOffset in="SourceGraphic" result="offOut"/><feGaussianBlur in="offOut" stdDeviation="10" result="blurOut"/><feMerge><feMergeNode in="blurOut"/><feMergeNode in="mergeOut"/></feMerge></filter><filter id="flaggingFilter" x="-25%" y="-25%" width="150%" height="150%"><feColorMatrix in="SourceGraphic" values="1 0 0 1 0 0 0 0 0 0 0 0 1 1 0 0 0 0 1 0 " result="cMatrixOut"/><feMorphology in="cMatrixOut" operator="dilate" radius="4" result="morphoOut"/><feMerge result="mergeOut"><feMergeNode in="morphoOut"/><feMergeNode in="SourceGraphic"/></feMerge></filter><filter id="selectionFilter" x="-25%" y="-25%" width="150%" height="150%"><feColorMatrix in="SourceGraphic" values="0 0 0 0 0 0 0 0 0 0 0 0 1 1 0 0 0 0 1 0 " result="cMatrixOut"/><feMorphology in="cMatrixOut" operator="dilate" radius="4" result="morphoOut"/><feMerge result="mergeOut"><feMergeNode in="morphoOut"/><feMergeNode in="SourceGraphic"/></feMerge></filter><filter id="hoveringFilter" x="-25%" y="-25%" width="150%" height="150%"><feOffset in="SourceGraphic" result="offOut"/><feGaussianBlur in="offOut" stdDeviation="10" result="blurOut"/><feMerge result="mergeOut"><feMergeNode in="blurOut"/><feMergeNode in="SourceGraphic"/></feMerge></filter><style>.cls-1{fill:url(#radial-gradient);}.cls-2{fill:url(#radial-gradient-2);}.cls-101,.cls-104,.cls-107,.cls-3,.cls-43,.cls-52,.cls-66{opacity:0.5;}.cls-4{fill:url(#radial-gradient-3);}.cls-5{fill:#f6783e;}.cls-103,.cls-106,.cls-42,.cls-45,.cls-5,.cls-54,.cls-68{opacity:0.7;}.cls-6{fill:url(#linear-gradient);}.cls-7{fill:url(#linear-gradient-2);}.cls-8{fill:url(#linear-gradient-3);}.cls-9{fill:url(#linear-gradient-4);}.cls-10,.cls-26{font-size:12px;}.cls-10,.cls-24,.cls-26,.cls-29{font-family:Arial-BoldMT, Arial;font-weight:700;}.cls-11{fill:#0052af;}.cls-12,.cls-33,.cls-38,.cls-40{fill:none;}.cls-12{stroke-miterlimit:10;stroke-width:8px;stroke:url(#linear-gradient-5);}.cls-13{fill:#2f9ec2;}.cls-14{fill:#d1eaf2;}.cls-15{fill:#9bd1e2;}.cls-16{fill:#80c4da;}.cls-17{fill:#65b7d2;}.cls-18{fill:#4aabca;}.cls-19,.cls-24,.cls-26,.cls-29{fill:#fff;}.cls-19,.cls-27{opacity:0;}.cls-20{fill:url(#linear-gradient-6);}.cls-21{fill:url(#linear-gradient-7);}.cls-22{fill:url(#linear-gradient-8);}.cls-23{fill:url(#linear-gradient-9);}.cls-24{font-size:12px;}.cls-25{fill:#0f82bc;}.cls-28{fill:#c6c6c6;}.cls-29,.cls-46,.cls-55{isolation:isolate;}.cls-29{font-size:9px;}.cls-30,.cls-46{opacity:0.8;}.cls-31{fill:url(#radial-gradient-4);}.cls-32{fill:#5656a5;}.cls-33{stroke:#aaba11;stroke-width:3px;}.cls-33,.cls-38,.cls-40{stroke-linecap:round;stroke-linejoin:round;}.cls-34{fill:url(#linear-gradient-10);}.cls-35{fill:url(#linear-gradient-11);}.cls-36{fill:url(#linear-gradient-12);}.cls-37{fill:url(#linear-gradient-13);}.cls-38{stroke:#5b2c2c;}.cls-38,.cls-40{stroke-dasharray:4 5;}.cls-39{fill:url(#radial-gradient-5);}.cls-40{stroke:#395b2c;}.cls-41{fill:url(#radial-gradient-6);}.cls-43{fill:url(#linear-gradient-14);}.cls-44{fill:url(#radial-gradient-7);}.cls-45{fill:url(#radial-gradient-8);}.cls-47{fill:url(#radial-gradient-9);}.cls-48{fill:url(#linear-gradient-15);}.cls-49{fill:url(#linear-gradient-16);}.cls-50{fill:url(#linear-gradient-17);}.cls-51{fill:url(#linear-gradient-18);}.cls-52{fill:url(#linear-gradient-19);}.cls-53{fill:url(#radial-gradient-10);}.cls-54{fill:url(#radial-gradient-11);}.cls-55{opacity:0.79;}.cls-56{fill:url(#radial-gradient-12);}.cls-57{fill:url(#linear-gradient-20);}.cls-58{fill:url(#linear-gradient-21);}.cls-59{fill:url(#linear-gradient-22);}.cls-60{fill:url(#linear-gradient-23);}.cls-61{fill:url(#linear-gradient-24);}.cls-62{fill:url(#linear-gradient-25);}.cls-63{fill:url(#linear-gradient-26);}.cls-64{fill:url(#linear-gradient-27);}.cls-65{fill:url(#linear-gradient-28);}.cls-66{fill:url(#linear-gradient-29);}.cls-67{fill:url(#radial-gradient-13);}.cls-68{fill:url(#radial-gradient-14);}.cls-69{fill:url(#radial-gradient-15);}.cls-70{fill:url(#linear-gradient-30);}.cls-71{fill:url(#linear-gradient-31);}.cls-72{fill:url(#radial-gradient-16);}.cls-73{fill:url(#linear-gradient-32);}.cls-74{fill:url(#linear-gradient-33);}.cls-75{fill:url(#linear-gradient-34);}.cls-76{fill:url(#linear-gradient-35);}.cls-77{fill:url(#linear-gradient-36);}.cls-78{fill:url(#linear-gradient-37);}.cls-79{fill:url(#linear-gradient-38);}.cls-80{fill:url(#linear-gradient-39);}.cls-81{fill:url(#linear-gradient-40);}.cls-82{fill:url(#linear-gradient-41);}.cls-83{fill:url(#linear-gradient-42);}.cls-84{fill:url(#linear-gradient-43);}.cls-85{fill:url(#linear-gradient-44);}.cls-86{fill:url(#linear-gradient-45);}.cls-87{fill:url(#radial-gradient-17);}.cls-88{fill:url(#linear-gradient-46);}.cls-89{fill:url(#linear-gradient-47);}.cls-90{fill:url(#linear-gradient-48);}.cls-91{fill:url(#linear-gradient-49);}.cls-92{fill:url(#linear-gradient-50);}.cls-93{fill:url(#linear-gradient-51);}.cls-94{fill:url(#linear-gradient-52);}.cls-95{fill:url(#linear-gradient-53);}.cls-96{fill:url(#linear-gradient-54);}.cls-97{fill:url(#linear-gradient-55);}.cls-98{fill:url(#linear-gradient-56);}.cls-99{fill:url(#linear-gradient-57);}.cls-100{fill:url(#radial-gradient-18);}.cls-101{fill:url(#linear-gradient-58);}.cls-102{fill:url(#radial-gradient-19);}.cls-103{fill:url(#radial-gradient-20);}.cls-104{fill:url(#linear-gradient-59);}.cls-105{fill:url(#radial-gradient-21);}.cls-106{fill:url(#radial-gradient-22);}.cls-107{fill:url(#linear-gradient-60);}.cls-108{mask:url(#mask);}.cls-109{fill:url(#radial-gradient-23);}.cls-110{mask:url(#mask-2);}.cls-111{fill:url(#radial-gradient-24);}.cls-112{fill:url(#radial-gradient-25);}.cls-113{fill:url(#radial-gradient-26);}.ST-OVERLAY-TEXT, .ST-OVERLAY-TEXT &gt; * { fill: #000000 !important; stroke:#000000; stroke-width:0.5px }.ST-ANALYSIS-INFO{ opacity: 1 !important; -webkit-transition: all .9s ease-in-out;  -moz-transition: all .9s ease-in-out; transition: all .9s ease-in-out;}</style><radialGradient id="radial-gradient" cx="549.0995" cy="160.2938" r="56.5851" gradientUnits="userSpaceOnUse"><stop offset="0.7136"/><stop offset="1" stop-color="#fff"/></radialGradient><radialGradient id="radial-gradient-2" cx="600.1556" cy="170.846" r="56.5767" gradientUnits="userSpaceOnUse"><stop offset="0.7307"/><stop offset="0.7326" stop-color="#090909"/><stop offset="0.7435" stop-color="#373737"/><stop offset="0.7557" stop-color="#626262"/><stop offset="0.7689" stop-color="#888"/><stop offset="0.7832" stop-color="#a8a8a8"/><stop offset="0.799" stop-color="#c4c4c4"/><stop offset="0.8169" stop-color="#dadada"/><stop offset="0.8377" stop-color="#ebebeb"/><stop offset="0.8635" stop-color="#f6f6f6"/><stop offset="0.8996" stop-color="#fdfdfd"/><stop offset="1" stop-color="#fff"/></radialGradient><radialGradient id="radial-gradient-3" cx="663.2883" cy="388.3572" r="311.3067" gradientUnits="userSpaceOnUse"><stop offset="0.0005" stop-color="#4c4185"/><stop offset="0.1013" stop-color="#4c4185" stop-opacity="0.8607"/><stop offset="0.3955" stop-color="#4c4185" stop-opacity="0.4918"/><stop offset="0.654" stop-color="#4c4185" stop-opacity="0.2238"/><stop offset="0.8643" stop-color="#4c4185" stop-opacity="0.0598"/><stop offset="1" stop-color="#4c4185" stop-opacity="0"/></radialGradient><linearGradient id="linear-gradient" x1="803.4859" y1="636.7067" x2="716.4859" y2="485.7067" gradientTransform="translate(-68.3777 183.4798) rotate(-15.2124)" gradientUnits="userSpaceOnUse"><stop offset="0" stop-color="#4c4185"/><stop offset="1" stop-color="#4c4185" stop-opacity="0"/></linearGradient><linearGradient id="linear-gradient-2" x1="763.048" y1="606.6405" x2="676.048" y2="455.6405" gradientTransform="translate(488.5209 1068.9443) rotate(-105.2124)" xlink:href="#linear-gradient"/><linearGradient id="linear-gradient-3" x1="793.1142" y1="566.2026" x2="706.1142" y2="415.2026" gradientTransform="translate(1373.9854 512.0456) rotate(164.7876)" xlink:href="#linear-gradient"/><linearGradient id="linear-gradient-4" x1="833.5521" y1="596.2688" x2="746.5521" y2="445.2688" gradientTransform="translate(817.0867 -373.4189) rotate(74.7876)" xlink:href="#linear-gradient"/><linearGradient id="linear-gradient-5" x1="705.1998" y1="712.6861" x2="761.4205" y2="712.6861" gradientTransform="translate(-55.6977 -539.0334)" gradientUnits="userSpaceOnUse"><stop offset="0" stop-color="#9cdaff"/><stop offset="0.9502" stop-color="#0052af"/></linearGradient><linearGradient id="linear-gradient-6" x1="743.7226" y1="296.8213" x2="590.393" y2="296.8213" gradientUnits="userSpaceOnUse"><stop offset="0" stop-color="#f6783e"/><stop offset="0.1604" stop-color="#f67c43"/><stop offset="0.3589" stop-color="#f68652"/><stop offset="0.5773" stop-color="#f6976c"/><stop offset="0.8085" stop-color="#f6af8e"/><stop offset="1" stop-color="#f6c7b1"/></linearGradient><linearGradient id="linear-gradient-7" x1="583.4603" y1="303.7536" x2="583.4603" y2="457.0835" xlink:href="#linear-gradient-6"/><linearGradient id="linear-gradient-8" x1="590.393" y1="464.0162" x2="743.723" y2="464.0162" xlink:href="#linear-gradient-6"/><linearGradient id="linear-gradient-9" x1="765.4604" y1="456.804" x2="765.4604" y2="303.4747" xlink:href="#linear-gradient-6"/><radialGradient id="radial-gradient-4" cx="434.0792" cy="1125.857" r="42.2436" gradientTransform="translate(0 -737.1874)" gradientUnits="userSpaceOnUse"><stop offset="0" stop-color="#afbaf7"/><stop offset="0.3111" stop-color="#6d96ce"/><stop offset="0.8032" stop-color="#285fcc"/></radialGradient><linearGradient id="linear-gradient-10" x1="407.8013" y1="391.5007" x2="446.8478" y2="391.5007" gradientTransform="translate(-33.7647 44.4523) rotate(-5.7221)" gradientUnits="userSpaceOnUse"><stop offset="0" stop-color="#e36023"/><stop offset="0.0795" stop-color="#d7591f"/><stop offset="0.3452" stop-color="#b34613"/><stop offset="0.595" stop-color="#9a380a"/><stop offset="0.8204" stop-color="#8a2f05"/><stop offset="1" stop-color="#852c03"/></linearGradient><linearGradient id="linear-gradient-11" x1="412.8016" y1="394.5009" x2="451.8481" y2="394.5009" xlink:href="#linear-gradient-10"/><linearGradient id="linear-gradient-12" x1="445.5532" y1="404.0143" x2="458.706" y2="404.0143" gradientUnits="userSpaceOnUse"><stop offset="0" stop-color="#8776e3"/><stop offset="0.9995" stop-color="#170385"/></linearGradient><linearGradient id="linear-gradient-13" x1="452.5536" y1="404.0143" x2="465.7064" y2="404.0143" xlink:href="#linear-gradient-12"/><radialGradient id="radial-gradient-5" cx="724.8731" cy="769.9118" r="5.735" gradientTransform="matrix(0, -1, -1, 0, 1244.411, 1159.0564)" gradientUnits="userSpaceOnUse"><stop offset="0" stop-color="#a76b6b"/><stop offset="0.9995" stop-color="#5b2c2c"/></radialGradient><radialGradient id="radial-gradient-6" cx="782.5805" cy="138.741" r="5.735" gradientTransform="translate(266.4633 1159.0564) rotate(-90)" gradientUnits="userSpaceOnUse"><stop offset="0" stop-color="#87a76b"/><stop offset="0.9995" stop-color="#395b2c"/></radialGradient><linearGradient id="linear-gradient-14" x1="442.2759" y1="352.2511" x2="442.2759" y2="463.4264" gradientUnits="userSpaceOnUse"><stop offset="0" stop-color="#998abd"/><stop offset="0.5" stop-color="#70658a"/><stop offset="1" stop-color="#372e4a"/></linearGradient><radialGradient id="radial-gradient-7" cx="426.0506" cy="389.4138" r="79.6634" gradientUnits="userSpaceOnUse"><stop offset="0.5669" stop-color="#cacacc" stop-opacity="0"/><stop offset="0.888" stop-color="#4e3b4d" stop-opacity="0.7068"/><stop offset="1" stop-color="#1a0018"/></radialGradient><radialGradient id="radial-gradient-8" cx="426.0506" cy="389.4138" r="79.6634" gradientUnits="userSpaceOnUse"><stop offset="0" stop-color="#fdfdff"/><stop offset="1" stop-color="#cacacc" stop-opacity="0"/></radialGradient><radialGradient id="radial-gradient-9" cx="658.7006" cy="1291.8674" r="42.2436" xlink:href="#radial-gradient-4"/><linearGradient id="linear-gradient-15" x1="638.5384" y1="556.3446" x2="673.2227" y2="556.3446" gradientTransform="matrix(1, 0, 0, 1, 0, 0)" xlink:href="#linear-gradient-10"/><linearGradient id="linear-gradient-16" x1="642.9801" y1="559.0096" x2="677.6644" y2="559.0096" gradientTransform="matrix(1, 0, 0, 1, 0, 0)" xlink:href="#linear-gradient-10"/><linearGradient id="linear-gradient-17" x1="670.0456" y1="568.6693" x2="681.729" y2="568.6693" xlink:href="#linear-gradient-12"/><linearGradient id="linear-gradient-18" x1="676.264" y1="568.6693" x2="687.9474" y2="568.6693" xlink:href="#linear-gradient-12"/><linearGradient id="linear-gradient-19" x1="667.058" y1="519.2607" x2="667.058" y2="617.9394" xlink:href="#linear-gradient-14"/><radialGradient id="radial-gradient-10" cx="652.6565" cy="552.2461" r="70.7089" xlink:href="#radial-gradient-7"/><radialGradient id="radial-gradient-11" cx="652.6565" cy="552.2461" r="70.7089" xlink:href="#radial-gradient-8"/><radialGradient id="radial-gradient-12" cx="916.1654" cy="1126.8758" r="44.7013" xlink:href="#radial-gradient-4"/><linearGradient id="linear-gradient-20" x1="911.6735" y1="399.3611" x2="931.52" y2="399.3611" gradientTransform="matrix(1, 0, 0, 1, 0, 0)" xlink:href="#linear-gradient-10"/><linearGradient id="linear-gradient-21" x1="942.5516" y1="402.4262" x2="955.3279" y2="402.4262" gradientTransform="matrix(1, 0, 0, 1, 0, 0)" xlink:href="#linear-gradient-10"/><linearGradient id="linear-gradient-22" x1="902.8353" y1="422.7606" x2="928.5367" y2="422.7606" gradientTransform="matrix(1, 0, 0, 1, 0, 0)" xlink:href="#linear-gradient-10"/><linearGradient id="linear-gradient-23" x1="897.755" y1="396.0843" x2="910.646" y2="396.0843" gradientTransform="matrix(1, 0, 0, 1, 0, 0)" xlink:href="#linear-gradient-10"/><linearGradient id="linear-gradient-24" x1="915.8297" y1="399.3181" x2="956.4804" y2="399.3181" xlink:href="#linear-gradient-12"/><linearGradient id="linear-gradient-25" x1="905.3074" y1="417.772" x2="944.9085" y2="417.772" xlink:href="#linear-gradient-12"/><linearGradient id="linear-gradient-26" x1="894.4016" y1="416.1161" x2="922.5228" y2="416.1161" xlink:href="#linear-gradient-12"/><linearGradient id="linear-gradient-27" x1="908.2889" y1="388.4893" x2="934.083" y2="388.4893" xlink:href="#linear-gradient-12"/><linearGradient id="linear-gradient-28" x1="931.7264" y1="397.2015" x2="953.028" y2="397.2015" xlink:href="#linear-gradient-12"/><linearGradient id="linear-gradient-29" x1="922.6183" y1="352.4562" x2="922.6183" y2="458.6654" xlink:href="#linear-gradient-14"/><radialGradient id="radial-gradient-13" cx="907.0341" cy="387.0231" r="75.5674" gradientTransform="translate(-6.3691 -1.8177) scale(1.0071)" xlink:href="#radial-gradient-7"/><radialGradient id="radial-gradient-14" cx="907.0341" cy="387.0231" r="75.5674" gradientTransform="translate(-6.3691 -1.8177) scale(1.0071)" xlink:href="#radial-gradient-8"/><radialGradient id="radial-gradient-15" cx="718.7102" cy="977.3549" r="33.1679" gradientTransform="translate(198.1806 -880.7681) rotate(11.5283)" xlink:href="#radial-gradient-4"/><linearGradient id="linear-gradient-30" x1="705.7107" y1="245.9714" x2="737.8694" y2="245.9714" gradientTransform="translate(50.7117 -158.4669) rotate(11.5283)" xlink:href="#linear-gradient-10"/><linearGradient id="linear-gradient-31" x1="783.6855" y1="293.7455" x2="825.4878" y2="293.7455" gradientTransform="matrix(0.5032, 0.8279, -0.8195, 0.4981, 549.3184, -581.8079)" xlink:href="#linear-gradient-12"/><radialGradient id="radial-gradient-16" cx="769.3757" cy="899.3715" r="33.1679" gradientTransform="translate(198.1806 -880.7681) rotate(11.5283)" xlink:href="#radial-gradient-4"/><linearGradient id="linear-gradient-32" x1="747.5727" y1="154.7889" x2="779.7314" y2="154.7889" gradientTransform="translate(1084.3484 -553.9105) rotate(101.5283)" xlink:href="#linear-gradient-10"/><linearGradient id="linear-gradient-33" x1="744.0194" y1="197.0972" x2="785.8217" y2="197.0972" gradientTransform="matrix(-0.8279, 0.5032, -0.4981, -0.8195, 1507.6894, -55.3038)" xlink:href="#linear-gradient-12"/><linearGradient id="linear-gradient-34" x1="683.4991" y1="-162.7662" x2="693.8047" y2="-152.4606" gradientTransform="matrix(-0.7071, 0.7071, 0.7071, 0.7071, 1151.354, -171.4493)" xlink:href="#linear-gradient-10"/><linearGradient id="linear-gradient-35" x1="1002.946" y1="167.2525" x2="1009.3537" y2="173.6602" gradientTransform="matrix(-0.7071, -0.7071, -0.7071, 0.7071, 1383.0689, 782.2586)" gradientUnits="userSpaceOnUse"><stop offset="0" stop-color="#e36023"/><stop offset="0.9995" stop-color="#852c03"/></linearGradient><linearGradient id="linear-gradient-36" x1="667.4824" y1="-191.2132" x2="677.788" y2="-180.9076" gradientTransform="matrix(-0.7071, 0.7071, 0.7071, 0.7071, 1160.1414, -150.2348)" xlink:href="#linear-gradient-10"/><linearGradient id="linear-gradient-37" x1="1001.125" y1="181.8193" x2="1007.5327" y2="188.227" gradientTransform="matrix(-0.7071, -0.7071, -0.7071, 0.7071, 1392.1045, 760.4446)" xlink:href="#linear-gradient-35"/><linearGradient id="linear-gradient-38" x1="660.2514" y1="-198.4442" x2="670.557" y2="-188.1386" gradientTransform="matrix(-0.7071, 0.7071, 0.7071, 0.7071, 1160.1414, -150.2348)" xlink:href="#linear-gradient-10"/><linearGradient id="linear-gradient-39" x1="1008.356" y1="174.5884" x2="1014.7637" y2="180.996" gradientTransform="matrix(-0.7071, -0.7071, -0.7071, 0.7071, 1392.1045, 760.4446)" xlink:href="#linear-gradient-35"/><linearGradient id="linear-gradient-40" x1="747.5736" y1="-159.0865" x2="757.8792" y2="-148.7809" gradientTransform="matrix(-0.7071, 0.7071, 0.7071, 0.7071, 1194.2973, -270.4893)" xlink:href="#linear-gradient-12"/><linearGradient id="linear-gradient-41" x1="1052.3476" y1="170.5161" x2="1058.7552" y2="176.9238" gradientTransform="matrix(-0.7071, -0.7071, -0.7071, 0.7071, 1420.527, 763.7525)" xlink:href="#linear-gradient-12"/><linearGradient id="linear-gradient-42" x1="745.737" y1="-173.7702" x2="756.0426" y2="-163.4646" gradientTransform="matrix(-0.7071, 0.7071, 0.7071, 0.7071, 1203.3718, -248.5815)" xlink:href="#linear-gradient-12"/><linearGradient id="linear-gradient-43" x1="1036.3046" y1="198.9369" x2="1042.7122" y2="205.3446" gradientTransform="matrix(-0.7071, -0.7071, -0.7071, 0.7071, 1429.3143, 742.538)" xlink:href="#linear-gradient-12"/><linearGradient id="linear-gradient-44" x1="752.9679" y1="-166.5392" x2="763.2735" y2="-156.2336" gradientTransform="matrix(-0.7071, 0.7071, 0.7071, 0.7071, 1203.3718, -248.5815)" xlink:href="#linear-gradient-12"/><linearGradient id="linear-gradient-45" x1="1029.0736" y1="206.1678" x2="1035.4813" y2="212.5755" gradientTransform="matrix(-0.7071, -0.7071, -0.7071, 0.7071, 1429.3143, 742.538)" xlink:href="#linear-gradient-12"/><radialGradient id="radial-gradient-17" cx="986.4495" cy="260.3186" r="3.0021" xlink:href="#radial-gradient-6"/><linearGradient id="linear-gradient-46" x1="434.614" y1="86.1189" x2="444.9196" y2="96.4245" gradientTransform="translate(359.5203 -171.4493) rotate(45)" xlink:href="#linear-gradient-10"/><linearGradient id="linear-gradient-47" x1="754.0609" y1="-81.6326" x2="760.4686" y2="-75.2249" gradientTransform="translate(127.8054 782.2586) rotate(-45)" xlink:href="#linear-gradient-35"/><linearGradient id="linear-gradient-48" x1="418.5973" y1="57.6718" x2="428.9029" y2="67.9774" gradientTransform="translate(350.733 -150.2348) rotate(45)" xlink:href="#linear-gradient-10"/><linearGradient id="linear-gradient-49" x1="752.24" y1="-67.0658" x2="758.6476" y2="-60.6581" gradientTransform="translate(118.7698 760.4446) rotate(-45)" xlink:href="#linear-gradient-35"/><linearGradient id="linear-gradient-50" x1="411.3664" y1="50.4409" x2="421.672" y2="60.7465" gradientTransform="translate(350.733 -150.2348) rotate(45)" xlink:href="#linear-gradient-10"/><linearGradient id="linear-gradient-51" x1="759.4709" y1="-74.2967" x2="765.8786" y2="-67.889" gradientTransform="translate(118.7698 760.4446) rotate(-45)" xlink:href="#linear-gradient-35"/><linearGradient id="linear-gradient-52" x1="498.6886" y1="89.7986" x2="508.9942" y2="100.1042" gradientTransform="translate(316.5771 -270.4893) rotate(45)" xlink:href="#linear-gradient-12"/><linearGradient id="linear-gradient-53" x1="803.4625" y1="-78.369" x2="809.8702" y2="-71.9613" gradientTransform="translate(90.3474 763.7525) rotate(-45)" xlink:href="#linear-gradient-12"/><linearGradient id="linear-gradient-54" x1="496.8519" y1="75.1149" x2="507.1575" y2="85.4205" gradientTransform="translate(307.5026 -248.5815) rotate(45)" xlink:href="#linear-gradient-12"/><linearGradient id="linear-gradient-55" x1="787.4195" y1="-49.9482" x2="793.8271" y2="-43.5405" gradientTransform="translate(81.56 742.538) rotate(-45)" xlink:href="#linear-gradient-12"/><linearGradient id="linear-gradient-56" x1="504.79" y1="81.6387" x2="515.0956" y2="91.9443" gradientTransform="translate(307.5026 -248.5815) rotate(45)" xlink:href="#linear-gradient-12"/><linearGradient id="linear-gradient-57" x1="780.8957" y1="-42.0101" x2="787.3033" y2="-35.6024" gradientTransform="translate(81.56 742.538) rotate(-45)" xlink:href="#linear-gradient-12"/><radialGradient id="radial-gradient-18" cx="986.4495" cy="612.2952" r="3.0021" xlink:href="#radial-gradient-5"/><linearGradient id="linear-gradient-58" x1="728.1236" y1="214.6185" x2="728.1236" y2="287.433" gradientTransform="translate(50.7117 -157.7643) rotate(11.5283)" xlink:href="#linear-gradient-14"/><radialGradient id="radial-gradient-19" cx="717.4968" cy="238.9583" r="52.1758" gradientTransform="translate(50.7117 -157.7643) rotate(11.5283)" xlink:href="#radial-gradient-7"/><radialGradient id="radial-gradient-20" cx="717.4968" cy="238.9583" r="52.1758" gradientTransform="translate(50.7117 -157.7643) rotate(11.5283)" xlink:href="#radial-gradient-8"/><linearGradient id="linear-gradient-59" x1="777.2828" y1="135.7992" x2="777.2828" y2="208.6138" gradientTransform="translate(50.7117 -157.7643) rotate(11.5283)" xlink:href="#linear-gradient-14"/><radialGradient id="radial-gradient-21" cx="766.656" cy="160.139" r="52.1758" gradientTransform="translate(50.7117 -157.7643) rotate(11.5283)" xlink:href="#radial-gradient-7"/><radialGradient id="radial-gradient-22" cx="766.656" cy="160.139" r="52.1758" gradientTransform="translate(50.7117 -157.7643) rotate(11.5283)" xlink:href="#radial-gradient-8"/><linearGradient id="linear-gradient-60" x1="579.4326" y1="133.4587" x2="579.4326" y2="212.4267" xlink:href="#linear-gradient-14"/><mask id="mask" x="559.3733" y="133.6069" width="80.0918" height="80.311" maskUnits="userSpaceOnUse"><g transform="translate(0 0.7026)"><circle class="cls-1" cx="599.4192" cy="173.1693" r="40.0459"/></g></mask><radialGradient id="radial-gradient-23" cx="587.8944" cy="160.3389" r="56.5851" xlink:href="#radial-gradient-7"/><mask id="mask-2" x="519.3274" y="133.8261" width="80.0918" height="80.0918" maskUnits="userSpaceOnUse"><g transform="translate(0 0.7026)"><circle class="cls-2" cx="559.3733" cy="173.1693" r="40.0459"/></g></mask><radialGradient id="radial-gradient-24" cx="547.8485" cy="160.558" r="56.5851" xlink:href="#radial-gradient-7"/><radialGradient id="radial-gradient-25" cx="548.059" cy="153.9015" r="40.5623" xlink:href="#radial-gradient-8"/><radialGradient id="radial-gradient-26" cx="588.9261" cy="153.6459" r="25.4528" xlink:href="#radial-gradient-8"/></defs><g id="BG" transform="matrix(0.667341411113739,0,0,0.667341411113739,38.70580184459686,66.00646138953698)"><g class="cls-3"><rect id="BG-2" data-name="BG" class="cls-4" y="0.7026" width="1366" height="768"/><ellipse id="FILL" class="cls-5" cx="667.058" cy="381.1213" rx="107.9547" ry="107.3801"/><g id="LINES"><path class="cls-6" d="M873.7775,588.2488a1.4976,1.4976,0,0,1-1.4554-.3875L751.8839,467.3071a1.4994,1.4994,0,1,1,2.1217-2.1193L874.4439,585.742a1.5,1.5,0,0,1-.6664,2.5068Z" transform="translate(0 0.7026)"/><path class="cls-7" d="M874.8881,173.6992a1.4977,1.4977,0,0,1-.3876,1.4555L753.9464,295.5929a1.4995,1.4995,0,0,1-2.1193-2.1218L872.3812,173.0329a1.5,1.5,0,0,1,2.5069.6663Z" transform="translate(0 0.7026)"/><path class="cls-8" d="M460.3385,172.5887a1.4975,1.4975,0,0,1,1.4554.3875L582.2322,293.53A1.4995,1.4995,0,0,1,580.11,295.65L459.6722,175.0955a1.5,1.5,0,0,1,.6663-2.5068Z" transform="translate(0 0.7026)"/><path class="cls-9" d="M459.228,587.1383a1.4977,1.4977,0,0,1,.3875-1.4555L580.17,465.2446a1.4995,1.4995,0,1,1,2.1193,2.1218L461.7348,587.8046a1.5,1.5,0,0,1-2.5068-.6663Z" transform="translate(0 0.7026)"/></g></g><g id="TEXT_DM"><text class="cls-10" transform="translate(795.3745 105.4507)">chromatin<tspan x="-17.001" y="14.3999">decondensation</tspan></text><text class="cls-10" transform="translate(375.5962 336.8223)">centrosome maturation</text><text class="cls-10" transform="translate(892.0542 336.794)">cell growth</text><text class="cls-10" transform="translate(595.7175 652.0374)">chromosome duplication</text><text class="cls-10" transform="translate(546.2938 241.7424)">chromosome<tspan x="3.668" y="14.3999">segregation</tspan></text></g><g id="R-ICO-012348_" data-name="R-ICO-012348 "><polygon class="cls-11" points="705.016 165.962 714.916 173.653 705.016 181.344 705.016 165.962"/><line class="cls-12" x1="705.7228" y1="173.6528" x2="649.5021" y2="173.6528"/></g><g id="LOGO" class="cls-3"><path class="cls-13" d="M395.7582,88.3887a.5009.5009,0,0,1-.1692.3785.4871.4871,0,0,1-.2818.0724,2.8726,2.8726,0,0,1-.3787-.0321,3.0053,3.0053,0,0,0-1.8281.3061,2.493,2.493,0,0,0-.9827.9343,2.567,2.567,0,0,0-.3542,1.3368v4.8969a.4856.4856,0,0,1-.1288.3462.4635.4635,0,0,1-.3545.1368.4681.4681,0,0,1-.4833-.483V88.4371a.464.464,0,0,1,.1369-.3545.4864.4864,0,0,1,.3464-.1288.4457.4457,0,0,1,.4833.4833v.9986a3.4214,3.4214,0,0,1,1.192-1.16,3.1018,3.1018,0,0,1,1.5784-.4189Q395.7579,87.857,395.7582,88.3887Z" transform="translate(0 0.7026)"/><path class="cls-13" d="M402.6442,88.429a3.8353,3.8353,0,0,1,1.4416,1.5382,4.75,4.75,0,0,1,.5154,2.239.4308.4308,0,0,1-.1289.33.4743.4743,0,0,1-.3383.1208h-6.7491a3.5931,3.5931,0,0,0,.4993,1.7,3.1883,3.1883,0,0,0,1.2082,1.1676,3.431,3.431,0,0,0,1.6913.4189,3.8931,3.8931,0,0,0,1.2644-.2174,2.697,2.697,0,0,0,1.0067-.572.5351.5351,0,0,1,.3384-.1288.4239.4239,0,0,1,.3221.741,4.0883,4.0883,0,0,1-1.3451.7733,4.5822,4.5822,0,0,1-1.5865.306,4.442,4.442,0,0,1-2.2633-.572,4.07,4.07,0,0,1-1.5542-1.5945,4.7038,4.7038,0,0,1-.564-2.3115,5.0349,5.0349,0,0,1,.5237-2.3277,3.8985,3.8985,0,0,1,1.4657-1.5945,4.0636,4.0636,0,0,1,2.1505-.5718A4.0067,4.0067,0,0,1,402.6442,88.429Zm-4.22,1.1839a3.5439,3.5439,0,0,0-1.0228,2.2067h6.2658a3.36,3.36,0,0,0-.9665-2.2067,2.9563,2.9563,0,0,0-2.1583-.8377A2.9228,2.9228,0,0,0,398.4239,89.6129Z" transform="translate(0 0.7026)"/><path class="cls-13" d="M412.6871,88.4451a4.2646,4.2646,0,0,1,1.6189,1.6188,4.5665,4.5665,0,0,1,.588,2.3034v3.9143a.4856.4856,0,0,1-.1288.3462.4635.4635,0,0,1-.3545.1368.4682.4682,0,0,1-.4832-.483V95.025A3.7472,3.7472,0,0,1,412.47,96.37a4.3473,4.3473,0,0,1-2.07.4913,4.5622,4.5622,0,0,1-2.3034-.5881,4.2577,4.2577,0,0,1-1.6189-1.6188,4.7739,4.7739,0,0,1,0-4.5906,4.2618,4.2618,0,0,1,1.6189-1.6188,4.773,4.773,0,0,1,4.59,0Zm-.483,7.0471a3.3526,3.3526,0,0,0,1.2644-1.2887,3.9027,3.9027,0,0,0,0-3.6726,3.4136,3.4136,0,0,0-1.2644-1.2965,3.5382,3.5382,0,0,0-4.8808,1.2965,3.8431,3.8431,0,0,0,0,3.6726,3.4074,3.4074,0,0,0,1.2726,1.2887,3.7183,3.7183,0,0,0,3.6082,0Z" transform="translate(0 0.7026)"/><path class="cls-13" d="M418.9692,96.2733a4.2078,4.2078,0,0,1-1.57-1.6188,4.6314,4.6314,0,0,1-.572-2.2872,4.9034,4.9034,0,0,1,.5316-2.2954,4.0507,4.0507,0,0,1,1.482-1.6108,3.96,3.96,0,0,1,2.1262-.5878,4.3643,4.3643,0,0,1,1.8845.4026,4.1471,4.1471,0,0,1,1.482,1.1919.5135.5135,0,0,1,.1128.274.3937.3937,0,0,1-.2256.3542.3854.3854,0,0,1-.2577.0968.4445.4445,0,0,1-.37-.1933,3.2823,3.2823,0,0,0-2.6255-1.2243,2.98,2.98,0,0,0-2.7787,1.74,4.2234,4.2234,0,0,0-.3946,1.8524,3.8619,3.8619,0,0,0,.4349,1.8362,3.2507,3.2507,0,0,0,1.208,1.2887,3.3571,3.3571,0,0,0,1.772.467,3.2132,3.2132,0,0,0,2.2711-.7891.4642.4642,0,0,1,.3384-.1451.3932.3932,0,0,1,.29.1128.46.46,0,0,1,.1612.3544.3673.3673,0,0,1-.1289.29,4.002,4.002,0,0,1-1.3208.7974,4.5829,4.5829,0,0,1-1.6108.282A4.326,4.326,0,0,1,418.9692,96.2733Z" transform="translate(0 0.7026)"/><path class="cls-13" d="M431.2028,95.9191a.4911.4911,0,0,1,.1369.3625.47.47,0,0,1-.1369.3462.49.49,0,0,1-.3625.1368h-.37a3.0811,3.0811,0,0,1-1.5784-.4026,2.84,2.84,0,0,1-1.0794-1.1034,3.2286,3.2286,0,0,1-.3866-1.5865V89.1457h-1.2563a.4351.4351,0,1,1,0-.87h1.2563V85.65a.4907.4907,0,0,1,.1369-.3624.47.47,0,0,1,.3464-.1369.4706.4706,0,0,1,.4994.4993v2.6256h2.1262a.4351.4351,0,1,1,0,.87h-2.1262v4.5264a2.0747,2.0747,0,0,0,.58,1.5221,2.0124,2.0124,0,0,0,1.498.5878h.3544A.4911.4911,0,0,1,431.2028,95.9191Z" transform="translate(0 0.7026)"/><path class="cls-13" d="M435.0767,96.2733a4.2574,4.2574,0,0,1-1.6188-1.6188,4.7732,4.7732,0,0,1,0-4.5906,4.2616,4.2616,0,0,1,1.6188-1.6188,4.7732,4.7732,0,0,1,4.5906,0,4.2644,4.2644,0,0,1,1.6188,1.6188,4.7732,4.7732,0,0,1,0,4.5906,4.26,4.26,0,0,1-1.6188,1.6188,4.7732,4.7732,0,0,1-4.5906,0Zm4.1075-.7811a3.3526,3.3526,0,0,0,1.2644-1.2887,3.9027,3.9027,0,0,0,0-3.6726,3.4136,3.4136,0,0,0-1.2644-1.2965,3.5382,3.5382,0,0,0-4.8808,1.2965,3.8438,3.8438,0,0,0,0,3.6726,3.4074,3.4074,0,0,0,1.2726,1.2887,3.7183,3.7183,0,0,0,3.6082,0Z" transform="translate(0 0.7026)"/><path class="cls-13" d="M455.3077,88.3243a3.2322,3.2322,0,0,1,1.1759,1.3448,4.4254,4.4254,0,0,1,.4187,1.9573v4.6552a.4843.4843,0,0,1-.1289.3462.4625.4625,0,0,1-.3542.1368.4681.4681,0,0,1-.4833-.483V91.6264a3.057,3.057,0,0,0-.6605-2.03,2.1075,2.1075,0,0,0-1.6913-.7892,2.3755,2.3755,0,0,0-1.82.741,2.6529,2.6529,0,0,0-.6605,1.9651v4.768a.4843.4843,0,0,1-.1289.3462.4624.4624,0,0,1-.3542.1368.4681.4681,0,0,1-.4833-.483V91.6264a3.057,3.057,0,0,0-.66-2.03,2.1075,2.1075,0,0,0-1.6913-.7892,2.4284,2.4284,0,0,0-2.5288,2.5449v4.9292a.4856.4856,0,0,1-.1288.3462.4635.4635,0,0,1-.3545.1368.4679.4679,0,0,1-.4832-.483V88.4371a.4639.4639,0,0,1,.1368-.3545.4864.4864,0,0,1,.3464-.1288.4457.4457,0,0,1,.4833.4833v.6281a3.1252,3.1252,0,0,1,1.1115-.9021,3.1912,3.1912,0,0,1,1.4173-.3221,3.116,3.116,0,0,1,1.6753.4592,3.2972,3.2972,0,0,1,1.1758,1.2644A3.22,3.22,0,0,1,451.8445,88.3a3.3423,3.3423,0,0,1,1.74-.4592A3.1338,3.1338,0,0,1,455.3077,88.3243Z" transform="translate(0 0.7026)"/><path class="cls-13" d="M465.399,88.429a3.8355,3.8355,0,0,1,1.4417,1.5382,4.751,4.751,0,0,1,.5154,2.239.4308.4308,0,0,1-.1289.33.4747.4747,0,0,1-.3384.1208H460.14a3.5931,3.5931,0,0,0,.4994,1.7,3.1868,3.1868,0,0,0,1.2082,1.1676,3.431,3.431,0,0,0,1.6913.4189,3.894,3.894,0,0,0,1.2644-.2174,2.6978,2.6978,0,0,0,1.0067-.572.5351.5351,0,0,1,.3384-.1288.4239.4239,0,0,1,.3221.741,4.0883,4.0883,0,0,1-1.3451.7733,4.5822,4.5822,0,0,1-1.5865.306,4.442,4.442,0,0,1-2.2633-.572,4.069,4.069,0,0,1-1.5542-1.5945,4.7038,4.7038,0,0,1-.564-2.3115,5.0361,5.0361,0,0,1,.5236-2.3277,3.8992,3.8992,0,0,1,1.4657-1.5945,4.0636,4.0636,0,0,1,2.15-.5718A4.0065,4.0065,0,0,1,465.399,88.429Zm-4.22,1.1839A3.5438,3.5438,0,0,0,460.156,91.82h6.2658a3.36,3.36,0,0,0-.9666-2.2067,2.9561,2.9561,0,0,0-2.1583-.8377A2.9231,2.9231,0,0,0,461.1787,89.6129Z" transform="translate(0 0.7026)"/><polygon class="cls-14" points="377.402 83.975 377.402 80.109 367.356 85.909 367.356 97.509 370.705 95.576 370.705 87.842 377.402 83.975"/><polygon class="cls-15" points="370.705 95.576 370.705 99.442 374.054 97.509 374.054 93.642 370.705 95.576"/><polygon class="cls-15" points="380.751 85.909 380.751 82.042 377.402 83.975 377.402 87.842 380.751 85.909"/><polygon class="cls-16" points="374.054 89.775 377.402 87.842 377.402 83.975 370.705 87.842 370.705 95.576 374.054 93.642 374.054 89.775"/><polygon class="cls-17" points="380.751 93.642 380.751 93.642 380.751 97.509 384.1 95.576 384.1 91.709 380.751 93.642 380.751 93.642"/><polygon class="cls-17" points="384.1 87.842 384.1 83.975 380.751 85.909 380.751 89.775 384.1 87.842"/><polygon class="cls-17" points="374.054 97.509 374.054 101.376 377.402 99.442 377.402 95.576 374.054 97.509"/><polygon class="cls-18" points="377.402 91.709 380.751 89.775 380.751 85.909 377.402 87.842 377.402 91.709 374.054 93.642 374.054 97.509 377.402 95.576 377.402 91.709"/><polygon class="cls-13" points="374.053 89.775 374.053 93.642 377.402 91.709 377.402 87.842 374.053 89.775"/><polygon class="cls-13" points="384.1 87.842 380.751 89.775 377.402 91.709 377.402 95.576 377.402 99.442 377.402 103.309 380.751 101.376 380.751 97.509 380.751 93.642 380.751 93.642 380.751 93.642 384.1 91.709 387.448 89.775 387.448 85.909 384.1 87.842"/></g></g><g id="REGION-R-HSA-453276" style="cursor: pointer;" transform="matrix(0.667341411113739,0,0,0.667341411113739,38.70580184459686,66.00646138953698)"><circle id="MASK-3" data-name="MASK" class="cls-19" cx="667.0578" cy="380.4186" r="107.9551" transform="translate(-80.4429 205.2599) rotate(-16.4568)"/><g id="R-ICO-014612"><g id="FRAGMENTS"><path class="cls-20" d="M725.8832,321.5934a83.286,83.286,0,0,0-117.6508,0l-2.8566-14.6844-14.9828-3.155a108.5438,108.5438,0,0,1,153.33,0l-3.16,14.9819Z" transform="translate(0 0.7026)"/><path class="cls-21" d="M590.393,457.0835a108.5438,108.5438,0,0,1,0-153.33l14.9828,3.155,2.8566,14.6844a83.2863,83.2863,0,0,0,0,117.6511l-14.6839,2.8513Z" transform="translate(0 0.7026)"/><path class="cls-22" d="M743.723,457.0835a108.5439,108.5439,0,0,1-153.33,0l3.1555-14.9881,14.6839-2.8513a83.2864,83.2864,0,0,0,117.6512,0l2.8518,14.6786Z" transform="translate(0 0.7026)"/><path class="cls-23" d="M805.0376,330.6183,796.037,318.01H755.721a108.6535,108.6535,0,0,0-11.9984-14.256l-3.16,14.9819-14.6795,2.8575a83.2859,83.2859,0,0,1,0,117.6507l2.8517,14.6786,14.9876,3.1607a108.5594,108.5594,0,0,0,25.1618-113.8568H796.037Z" transform="translate(0 0.7026)"/></g><g id="TEXT"><text class="cls-24" transform="translate(773.3926 335.1353)">G0</text><text class="cls-24" transform="translate(659.7339 291.1821)">M</text><text class="cls-24" transform="translate(660.73 479.5913)">S</text><text class="cls-24" transform="translate(754.7979 385.4165)">G1</text><text class="cls-24" transform="translate(563.2856 385.4155)">G2</text></g></g><g id="OVERLAY-R-HSA-453276"><rect class="cls-25" x="593.279" y="359.6214" width="147.558" height="43" rx="8"/><text class="cls-26" transform="translate(617.3939 378.216)">REGULATION OF<tspan x="-14.332" y="14.3999">MITOTIC CELL CYCLE</tspan></text></g><g id="ANALINFO-R-HSA-453276" class="cls-27"><rect class="cls-28" x="593.2792" y="339.6214" width="147.5569" height="20" rx="8"/><text id="_Group_" data-name="&lt;Group&gt;" class="cls-29" transform="translate(647.7108 351.7881)">XXX/YYY</text></g></g><g id="REGION-R-HSA-453274" style="cursor: pointer;" transform="matrix(0.667341411113739,0,0,0.667341411113739,38.70580184459686,66.00646138953698)"><path id="MASK-4" data-name="MASK" class="cls-19" d="M590.3932,303.7537c-41.7951,46.5414-41.9627,107.1277,0,153.33L279.4176,768H0V0L346.35-.7026V119.5668h59.9151Z" transform="translate(0 0.7026)"/><g id="_Group_2" data-name="&lt;Group&gt;" class="cls-30"><g id="R-ICO-013121"><circle class="cls-31" cx="442.4367" cy="402.0529" r="32.1413"/><path class="cls-32" d="M442.4367,434.6732A33.323,33.323,0,1,1,475.76,401.35,33.36,33.36,0,0,1,442.4367,434.6732Zm0-64.2826a30.96,30.96,0,1,0,30.96,30.96A30.99,30.99,0,0,0,442.4367,370.3906Z" transform="translate(0 0.7026)"/></g><path class="cls-33" d="M449.47,380.1356c-.5946,1.6968-3.8035,2.1167-7.1673.9379s-5.6086-3.51-5.014-5.2067" transform="translate(0 0.7026)"/><path class="cls-33" d="M445.8676,389.8938c-.3328,1.7668-3.4421,2.6644-6.9448,2.0048s-6.0726-2.6268-5.74-4.3937" transform="translate(0 0.7026)"/><path class="cls-33" d="M439.0322,407.3154c-1.1382,1.3918-4.2977.6908-7.0568-1.5658s-4.073-5.214-2.9348-6.6058" transform="translate(0 0.7026)"/><path class="cls-33" d="M427.3257,414.61c-1.1382,1.3917-4.2977.6907-7.0568-1.5658s-4.073-5.2141-2.9348-6.6058" transform="translate(0 0.7026)"/><path class="cls-34" d="M414.5494,413.3242a1.5,1.5,0,0,1-.9195-2.7805,47.6135,47.6135,0,0,1,5.0078-2.4157c6.5489-2.8733,14.6993-6.4488,15.7115-15.6326,1.1706-10.6208,5.7748-19.62,9.55-22.1848a3.6284,3.6284,0,0,1,3.0366-.7047,1.5,1.5,0,1,1-.7937,2.8923c-.0142,0-.0292.002-.0443.0035-1.7145.1718-7.4259,8.156-8.7664,20.323-1.2024,10.9056-10.6153,15.0356-17.4886,18.05a45.729,45.729,0,0,0-4.675,2.2448A1.4883,1.4883,0,0,1,414.5494,413.3242Z" transform="translate(0 0.7026)"/><path class="cls-35" d="M419.824,415.8109a1.5,1.5,0,0,1-.92-2.7806,47.6222,47.6222,0,0,1,5.0077-2.4156c6.5489-2.8733,14.6993-6.4489,15.7115-15.6326,1.1706-10.6208,5.7748-19.62,9.55-22.1848a3.6287,3.6287,0,0,1,3.0367-.7047,1.5,1.5,0,1,1-.7937,2.8923c-.0142.0005-.0293.002-.0443.0035-1.7146.1718-7.426,8.156-8.7665,20.323-1.2023,10.9056-10.6153,15.0356-17.4886,18.05a45.729,45.729,0,0,0-4.675,2.2448A1.49,1.49,0,0,1,419.824,415.8109Z" transform="translate(0 0.7026)"/><path class="cls-33" d="M433.1829,387.5049c.3328-1.7669,3.4421-2.6644,6.9448-2.0048s6.0726,2.6268,5.74,4.3937" transform="translate(0 0.7026)"/><path class="cls-33" d="M437.289,375.8668c.5946-1.6968,3.8035-2.1167,7.1673-.9379s5.6086,3.51,5.014,5.2067" transform="translate(0 0.7026)"/><path class="cls-33" d="M429.0406,399.1438c1.1383-1.3917,4.2977-.6907,7.0568,1.5658s4.0731,5.2141,2.9348,6.6058" transform="translate(0 0.7026)"/><path class="cls-33" d="M417.3341,406.438c1.1383-1.3918,4.2977-.6908,7.0568,1.5658s4.0731,5.214,2.9348,6.6058" transform="translate(0 0.7026)"/><path class="cls-33" d="M467.8624,387.7435c0,1.657-3.2312,3-7.2171,3s-7.2171-1.3432-7.2171-3" transform="translate(0 0.7026)"/><path class="cls-33" d="M459.1126,410.8405c-.7052,1.3678-3.854,2.021-7.4562,1.4688-3.94-.6041-6.93-2.4214-6.6791-4.0592" transform="translate(0 0.7026)"/><path class="cls-33" d="M458.2753,422.2084c.2,1.6448-2.8453,3.3684-6.8021,3.85-3.4621.4211-6.4748-.2484-7.308-1.5242" transform="translate(0 0.7026)"/><path class="cls-33" d="M465.1319,399.069c-.2511,1.6378-3.6486,2.4758-7.5884,1.8718s-6.93-2.4214-6.6792-4.0592" transform="translate(0 0.7026)"/><path class="cls-36" d="M449.13,430.6215a1.5,1.5,0,0,1-1.38-.9121c-3.8091-8.9356-2.7124-17.457,3.6665-28.4941,4.4341-7.6709,4.38-9.9288,4.2505-15.3829-.044-1.8261-.0977-4.1.0239-6.9873a1.4845,1.4845,0,0,1,1.5615-1.4355,1.5,1.5,0,0,1,1.4356,1.5625c-.1172,2.7881-.0669,4.914-.022,6.789.1358,5.6954.2041,8.5547-4.6518,16.9561-5.8531,10.126-6.9014,17.8467-3.5044,25.8164a1.5,1.5,0,0,1-1.3794,2.0879Z" transform="translate(0 0.7026)"/><path class="cls-37" d="M456.1306,430.6215a1.5,1.5,0,0,1-1.38-.9121c-3.809-8.9356-2.7124-17.457,3.6665-28.4941,4.4341-7.6709,4.38-9.9288,4.25-15.3829-.0439-1.8261-.0976-4.1.024-6.9873a1.4843,1.4843,0,0,1,1.5615-1.4355,1.5,1.5,0,0,1,1.4355,1.5625c-.1172,2.7881-.0669,4.914-.0219,6.789.1357,5.6954.2041,8.5547-4.6519,16.9561-5.853,10.126-6.9014,17.8467-3.5044,25.8164a1.5,1.5,0,0,1-1.3794,2.0879Z" transform="translate(0 0.7026)"/><path class="cls-33" d="M450.8643,396.8816c.2511-1.6378,3.6486-2.4758,7.5885-1.8718s6.93,2.4214,6.6791,4.0592" transform="translate(0 0.7026)"/><path class="cls-33" d="M444.1652,424.5339a1.359,1.359,0,0,1-.2185-.5825c-.2-1.6448,2.8452-3.3684,6.802-3.85s7.3265.4619,7.5266,2.1067" transform="translate(0 0.7026)"/><path class="cls-33" d="M453.4282,387.7435c0-1.6569,3.2312-3,7.2171-3s7.2171,1.3432,7.2171,3" transform="translate(0 0.7026)"/><path class="cls-33" d="M444.9773,408.25c.251-1.6378,3.6485-2.4759,7.5884-1.8718s6.93,2.4214,6.6791,4.0592a1.3106,1.3106,0,0,1-.1322.403" transform="translate(0 0.7026)"/><g id="R-ICO-013391"><path class="cls-38" d="M484.8366,410.8814c.5206,12.1493-.5277,19.16-7.8418,26.4374-8.93,8.885-16.3495,12.2345-23.5666,11.8539" transform="translate(0 0.7026)"/><path class="cls-38" d="M492.8664,421.0122c-5.8111,10.6821-10.32,16.1513-20.3381,18.6224-12.23,3.0168-20.3155,2.0664-26.3057-1.977" transform="translate(0 0.7026)"/><path class="cls-38" d="M492.8664,428.9841c-5.3428,9.3553-16.1544,10.5216-16.1544,10.5216" transform="translate(0 0.7026)"/><path class="cls-38" d="M476.6511,438.3441c-1.5889,10.6556-11.2428,15.6611-11.2428,15.6611" transform="translate(0 0.7026)"/></g><circle id="CENTROSOME" class="cls-39" cx="475.8353" cy="436.6796" r="5.735"/><g id="R-ICO-013391-2" data-name="R-ICO-013391"><path class="cls-40" d="M403.8283,408.5113c-1.0331-14.6068-2.0727-20.7536,2.0493-29.7067,4.4178-9.5957,11.0467-15.8791,20.4932-19.6448" transform="translate(0 0.7026)"/><path class="cls-40" d="M395.6159,400.1864c3.6-12.8066,6.2261-18.4439,12.7781-24.32,7.0691-6.3394,16.597-10.9121,24.7889-11.7521" transform="translate(0 0.7026)"/><path class="cls-40" d="M392.6589,390.2624s1.5616-5.8243,10.1363-13.1081" transform="translate(0 0.7026)"/><path class="cls-40" d="M403.8892,375.2926s3.1127-10.4017,9.01-13.16" transform="translate(0 0.7026)"/></g><circle id="CENTROSOME-2" data-name="CENTROSOME" class="cls-41" cx="406.831" cy="378.676" r="5.735"/></g><g id="TOP" class="cls-42"><circle id="BG-3" data-name="BG" class="cls-43" cx="442.2759" cy="408.1578" r="56.3787"/><circle id="SHADOW" class="cls-44" cx="442.2759" cy="408.1578" r="56.3787"/><circle id="LIGHT" class="cls-45" cx="442.2759" cy="408.1578" r="56.3787"/></g><g id="OVERLAY-R-HSA-453274"><rect class="cls-25" x="354.9349" y="289.4564" width="174.682" height="30" rx="8"/><text class="cls-26" transform="translate(364.9351 308.7586)">MITOTIC G2-G2/M PHASES</text></g><g id="ANALINFO-R-HSA-453274" data-name="ANALINFO" class="cls-27"><rect class="cls-28" x="354.9349" y="269.4665" width="174.6819" height="20" rx="8"/><text id="_Group_3" data-name="&lt;Group&gt;" class="cls-29" transform="translate(422.929 281.6332)">XXX/YYY</text></g></g><g id="REGION-R-HSA-69242" style="cursor: pointer;" transform="matrix(0.667341411113739,0,0,0.667341411113739,38.70580184459686,66.00646138953698)"><path id="MASK-5" data-name="MASK" class="cls-19" d="M1054.58,768H279.4176L590.3932,457.0834q76.6645,62.5809,153.33,0Z" transform="translate(0 0.7026)"/><g id="_Group_4" data-name="&lt;Group&gt;" class="cls-46"><g id="R-ICO-013121-2" data-name="R-ICO-013121"><circle class="cls-47" cx="667.0581" cy="568.0633" r="32.1413"/><path class="cls-32" d="M667.0581,600.6836a33.323,33.323,0,1,1,33.3229-33.3229A33.36,33.36,0,0,1,667.0581,600.6836Zm0-64.2826a30.96,30.96,0,1,0,30.96,30.96A30.99,30.99,0,0,0,667.0581,536.401Z" transform="translate(0 0.7026)"/></g><path class="cls-33" d="M673.6763,548.0747c-.6758,1.4471-3.5492,1.534-6.4179.1942s-4.6464-3.599-3.9706-5.046" transform="translate(0 0.7026)"/><path class="cls-33" d="M669.6278,556.38c-.4506,1.5322-3.2783,2.05-6.3158,1.1569s-5.1347-2.8595-4.6841-4.3917" transform="translate(0 0.7026)"/><path class="cls-33" d="M662.0433,571.1733c-1.1293,1.1293-3.86.23-6.0985-2.0089s-3.1382-4.9692-2.0089-6.0985" transform="translate(0 0.7026)"/><path class="cls-33" d="M651.0505,576.5835c-1.1293,1.1293-3.86.23-6.0985-2.0089s-3.1382-4.9692-2.0089-6.0985" transform="translate(0 0.7026)"/><path class="cls-48" d="M639.8719,574.3159a1.3326,1.3326,0,0,1-.5664-2.5391,42.305,42.305,0,0,1,4.64-1.6915c6.0428-1.96,13.5632-4.3981,15.2713-12.4256,1.9752-9.2835,6.8417-16.83,10.4056-18.7623a3.223,3.223,0,0,1,2.7464-.3539,1.3321,1.3321,0,1,1-.9577,2.4861c-.0125-.0008-.026-.0008-.0394-.0008-1.5307,0-7.2859,6.551-9.5482,17.1861-2.0286,9.5326-10.714,12.3492-17.056,14.4051a40.6419,40.6419,0,0,0-4.3308,1.57A1.3231,1.3231,0,0,1,639.8719,574.3159Z" transform="translate(0 0.7026)"/><path class="cls-49" d="M644.3136,576.9809a1.3326,1.3326,0,0,1-.5664-2.5391,42.305,42.305,0,0,1,4.64-1.6915c6.0428-1.96,13.5632-4.398,15.2713-12.4255,1.9752-9.2836,6.8416-16.83,10.4056-18.7624a3.2229,3.2229,0,0,1,2.7464-.3539,1.3321,1.3321,0,1,1-.9577,2.4861c-.0126-.0008-.026-.0008-.0394-.0008-1.5307,0-7.2859,6.551-9.5482,17.1861-2.0286,9.5326-10.714,12.3492-17.0561,14.4051a40.658,40.658,0,0,0-4.3308,1.57A1.3227,1.3227,0,0,1,644.3136,576.9809Z" transform="translate(0 0.7026)"/><path class="cls-33" d="M658.6279,553.1456c.4506-1.5322,3.2783-2.05,6.3158-1.1569s5.1346,2.86,4.6841,4.3917" transform="translate(0 0.7026)"/><path class="cls-33" d="M663.2878,543.2229c.6759-1.4471,3.5493-1.534,6.418-.1942s4.6463,3.599,3.9705,5.046" transform="translate(0 0.7026)"/><path class="cls-33" d="M653.9359,563.0659c1.1293-1.1293,3.86-.23,6.0985,2.0089s3.1382,4.9692,2.0089,6.0985" transform="translate(0 0.7026)"/><path class="cls-33" d="M642.9431,568.4761c1.1293-1.1293,3.86-.23,6.0985,2.0089s3.1382,4.9692,2.0089,6.0985" transform="translate(0 0.7026)"/><path class="cls-33" d="M689.8625,554.2162c0,1.4718-2.87,2.665-6.4108,2.665s-6.4109-1.1932-6.4109-2.665" transform="translate(0 0.7026)"/><path class="cls-33" d="M682.09,574.7328c-.6264,1.215-3.4234,1.7953-6.6232,1.3047-3.5-.5365-6.156-2.1509-5.933-3.6057" transform="translate(0 0.7026)"/><path class="cls-33" d="M681.3464,584.8307c.1777,1.4611-2.5274,2.9921-6.0421,3.42-3.0754.3741-5.7515-.2206-6.4916-1.3539" transform="translate(0 0.7026)"/><path class="cls-33" d="M687.437,564.2764c-.223,1.4548-3.2409,2.1993-6.7406,1.6627s-6.156-2.1509-5.933-3.6057" transform="translate(0 0.7026)"/><path class="cls-50" d="M673.223,592.3039a1.3325,1.3325,0,0,1-1.2262-.81c-3.3835-7.9373-2.4093-15.5067,3.2569-25.3108,3.9387-6.8139,3.891-8.82,3.7756-13.6643-.039-1.6221-.0867-3.6416.0213-6.2067a1.3186,1.3186,0,0,1,1.3871-1.2751,1.3327,1.3327,0,0,1,1.2751,1.3879c-.1041,2.4766-.0594,4.3651-.0195,6.0306.1206,5.059.1813,7.599-4.1321,15.0618-5.1992,8.9947-6.13,15.8528-3.1129,22.9322a1.3322,1.3322,0,0,1-1.2253,1.8546Z" transform="translate(0 0.7026)"/><path class="cls-51" d="M679.4414,592.3039a1.3325,1.3325,0,0,1-1.2262-.81c-3.3835-7.9373-2.4094-15.5067,3.2569-25.3108,3.9387-6.8139,3.891-8.82,3.7756-13.6643-.039-1.6221-.0867-3.6416.0213-6.2067a1.3186,1.3186,0,0,1,1.387-1.2751,1.3327,1.3327,0,0,1,1.2752,1.3879c-.1041,2.4766-.0594,4.3651-.0195,6.0306.1206,5.059.1813,7.599-4.1322,15.0618-5.1991,8.9947-6.13,15.8528-3.1129,22.9322a1.3321,1.3321,0,0,1-1.2252,1.8546Z" transform="translate(0 0.7026)"/><path class="cls-33" d="M668.8127,586.8964a1.2071,1.2071,0,0,1-.1941-.5174c-.1778-1.4611,2.5274-2.9921,6.0421-3.42s6.508.41,6.6857,1.8713" transform="translate(0 0.7026)"/><path class="cls-33" d="M674.7634,562.3334c.2231-1.4548,3.2409-2.1992,6.7407-1.6627s6.1559,2.1509,5.9329,3.6057" transform="translate(0 0.7026)"/><path class="cls-33" d="M677.0408,554.2162c0-1.4718,2.87-2.665,6.4109-2.665s6.4108,1.1932,6.4108,2.665" transform="translate(0 0.7026)"/><path class="cls-33" d="M669.534,572.4318c.2231-1.4548,3.241-2.1992,6.7407-1.6627s6.156,2.1509,5.9329,3.6057a1.1619,1.1619,0,0,1-.1174.358" transform="translate(0 0.7026)"/></g><g id="TOP-2" data-name="TOP" class="cls-42"><circle id="BG-4" data-name="BG" class="cls-52" cx="667.058" cy="568.8833" r="50.0415"/><circle id="SHADOW-2" data-name="SHADOW" class="cls-53" cx="667.058" cy="568.8833" r="50.0415"/><circle id="LIGHT-2" data-name="LIGHT" class="cls-54" cx="667.058" cy="568.8833" r="50.0415"/></g><g id="OVERLAY-R-HSA-69242"><rect class="cls-25" x="582.058" y="662.6964" width="170" height="30" rx="8"/><text class="cls-26" transform="translate(640.7173 681.988)">S PHASE</text></g><g id="ANALINFO-R-HSA-69242" data-name="ANALINFO" class="cls-27"><rect class="cls-28" x="582.058" y="692.6964" width="170" height="20" rx="8"/><text id="_Group_5" data-name="&lt;Group&gt;" class="cls-29" transform="translate(647.7112 704.8632)">XXX/YYY</text></g></g><g id="REGION-R-HSA-453279" style="cursor: pointer;" transform="matrix(0.667341411113739,0,0,0.667341411113739,38.70580184459686,66.00646138953698)" filter="url(#hoveringFilter)"><path id="MASK-6" data-name="MASK" class="cls-19" d="M1366,768H1054.58L743.7228,457.0833c26.4891-29.8592,40.649-65.2306,25.1618-113.8566h27.1522l9.0006-12.6083L796.0368,318.01h-40.316l-11.9983-14.2559L1048.2385-.7026,1366,0Z" transform="translate(0 0.7026)"/><g id="_Group_6" data-name="&lt;Group&gt;" class="cls-30"><g id="R-ICO-013121-3" data-name="R-ICO-013121" class="cls-55"><circle class="cls-56" cx="925.0091" cy="403.8503" r="34.0112"/><path class="cls-32" d="M925.0091,438.4093a35.2617,35.2617,0,1,1,35.2617-35.2617A35.3008,35.3008,0,0,1,925.0091,438.4093Zm0-68.0225A32.7609,32.7609,0,1,0,957.77,403.1476,32.7927,32.7927,0,0,0,925.0091,370.3868Z" transform="translate(0 0.7026)"/></g><g id="Genetic_data"><path class="cls-57" d="M924.3217,412.3646c-2.4536,0-5.1259-2.11-7.96-6.2881a1.1781,1.1781,0,1,1,1.95-1.3225c2.5323,3.7336,4.8184,5.5831,6.4366,5.2042,1.909-.445,3.5119-4.0551,4.2875-9.6574.4591-3.3159-.2969-6.0139-2.2465-8.0184-2.8795-2.96-7.82-3.882-11.4406-3.4835-.8619.0951-1.1016.4645-1.2143.7759-.5079,1.4008.746,4.7006,3.7228,7.7975a1.1783,1.1783,0,0,1-1.6992,1.6328c-3.4524-3.5913-5.1558-7.7038-4.24-10.2331a3.5664,3.5664,0,0,1,3.1717-2.3151c4.1916-.4626,9.9538.652,13.3883,4.1823,2.4475,2.5166,3.4474,5.9694,2.8917,9.9853-.9559,6.9019-3.0605,10.9232-6.0868,11.6289A4.2706,4.2706,0,0,1,924.3217,412.3646Z" transform="translate(0 0.7026)"/><path class="cls-58" d="M943.7312,407.844a1.1784,1.1784,0,0,1-.6268-2.1771c4.579-2.8691,8.3594-5.9353,10.1134-8.2014a1.1782,1.1782,0,0,1,1.8634,1.4422c-1.9144,2.474-5.9238,5.7473-10.7256,8.7568A1.178,1.178,0,0,1,943.7312,407.844Z" transform="translate(0 0.7026)"/><path class="cls-59" d="M923.4088,429.8551a4.3935,4.3935,0,0,1-2.8326-1.2335,1.178,1.178,0,1,1,1.5366-1.7859c.5945.5109,1.0874.7265,1.4683.6436.5972-.1334,1.3133-1.04,1.9642-2.4893a7.92,7.92,0,0,0,.6041-1.7214,29.9447,29.9447,0,0,0-5.2621,2.3075c-5.4079,2.7264-11.5376,5.8164-14.3944,2.3451-2.001-2.43-4.2361-5.9391-3.5215-8.8611a4.8252,4.8252,0,0,1,3.0536-3.3,1.1787,1.1787,0,0,1,.9221,2.1695,2.5616,2.5616,0,0,0-1.6866,1.6907c-.3713,1.5182.7411,3.9975,3.0513,6.8037,1.6612,2.0129,7.5907-.9735,11.5145-2.9519,4.1763-2.105,6.6967-3.3754,8.1036-2.0306,1.105,1.0563.5013,2.8752-.2351,4.5138-1.0149,2.26-2.1929,3.51-3.6013,3.8241A3.1364,3.1364,0,0,1,923.4088,429.8551Z" transform="translate(0 0.7026)"/><path class="cls-60" d="M899.83,413.53c-.0161,0-.0326,0-.0487-.0008a1.1782,1.1782,0,0,1-1.1292-1.2258c.0641-1.5688-.0917-3.97-.2888-7.0085-.2712-4.1785-.6087-9.3793-.6087-15.5807,0-5.3415,1.3163-8.81,3.9123-10.3106,2.1974-1.27,5.1762-.9505,8.3885.9006a1.1784,1.1784,0,1,1-1.1767,2.0421c-1.42-.8185-4.0915-2.0256-6.0327-.9021-1.789,1.0337-2.7348,3.8935-2.7348,8.27,0,6.1251.3348,11.2833.6037,15.428.2018,3.1084.3609,5.564.2915,7.2578A1.178,1.178,0,0,1,899.83,413.53Z" transform="translate(0 0.7026)"/><path class="cls-61" d="M929.8178,405.4927a14.842,14.842,0,0,1-3.6477-.5063,21.532,21.532,0,0,1-10.0118-5.9813,1.1783,1.1783,0,0,1,1.6992-1.6328,19.1436,19.1436,0,0,0,8.8926,5.33c4.844,1.23,6.6605-.3375,9.4076-2.7118a24.6135,24.6135,0,0,1,14.5716-6.6928c1.8775-.2531,4.4831-.3974,5.4443,1.2685.6425,1.1142.275,2.5752-1.0924,4.3419a1.1782,1.1782,0,1,1-1.8634-1.4422c.9486-1.2259.9083-1.7141.9041-1.7448a3.0064,3.0064,0,0,0-1.3973-.2167,12.6783,12.6783,0,0,0-1.68.1285,22.3,22.3,0,0,0-13.3457,6.14C935.4282,403.736,933.3953,405.4927,929.8178,405.4927Z" transform="translate(0 0.7026)"/><path class="cls-62" d="M936.1585,430.0561c-2.6363,0-5.7619-2.4379-9.568-5.4067-4.3723-3.4106-9.3283-7.277-13.8528-7.4273a14.3871,14.3871,0,0,0-5.7906.7073,1.1787,1.1787,0,0,1-.9221-2.1695,16.1973,16.1973,0,0,1,6.791-.8929c5.2912.1757,10.5683,4.2921,15.224,7.9237,3.4275,2.6734,6.9747,5.442,8.644,4.82.9082-.3352,1.3973-1.8794,1.6474-3.1153,1.14-5.6269-2.1119-7.0844-4.7248-8.2558-1.3141-.5892-2.5553-1.1461-2.58-2.4172-.0265-1.3486,1.2784-2.39,5.8187-4.645,2.1019-1.0433,4.2076-2.2246,6.2593-3.51a1.1785,1.1785,0,0,1,1.2512,1.9976c-2.1169,1.3263-4.2913,2.5453-6.4626,3.6239a26.94,26.94,0,0,0-4.2058,2.388c.2669.1358.6045.2869.8833.412,2.6508,1.1883,7.5846,3.4006,6.0707,10.8748-.5447,2.6887-1.5715,4.2782-3.1395,4.8582A3.8526,3.8526,0,0,1,936.1585,430.0561Z" transform="translate(0 0.7026)"/><path class="cls-63" d="M921.3441,428.907a1.1706,1.1706,0,0,1-.7679-.2854c-1.927-1.6578-3.8395-4.9027-6.1182-9.2654-.4235-.8108-.8488-1.6378-1.275-2.467-1.3747-2.6735-2.7961-5.4382-4.1758-7.6621-1.5811-2.5476-3.8828-3.79-6.4742-3.5058-2.5043.2762-4.9119,1.9723-5.6008,3.9461a2.655,2.655,0,0,0,.7134,2.9466,7.7088,7.7088,0,0,0,.8987.7863,7.6724,7.6724,0,0,0,.1082-1.097,1.1781,1.1781,0,1,1,2.3543.0966c-.0583,1.4292-.2823,2.9542-1.5,3.4329-1.2381.4879-2.474-.5078-3.52-1.5465a5.0293,5.0293,0,0,1-1.2788-5.3952c.9838-2.8192,4.1662-5.1375,7.5673-5.5126a8.9842,8.9842,0,0,1,8.7349,4.6058c1.43,2.3045,2.8736,5.1122,4.2694,7.8278.4239.8239.8469,1.647,1.2681,2.4533,1.8629,3.5664,3.8268,7.0737,5.5659,8.57a1.178,1.178,0,0,1-.7687,2.0713Z" transform="translate(0 0.7026)"/><path class="cls-64" d="M922.1293,396.8319a3.4713,3.4713,0,0,1-.6065-.053c-1.5043-.2673-2.6818-1.52-3.4992-3.7232a22.65,22.65,0,0,0-9.1445-10.7095,1.1784,1.1784,0,1,1,1.1767-2.0421,25.2233,25.2233,0,0,1,10.1771,11.9319c.3479.9378.9256,2.0847,1.7019,2.2224,1.749.3091,4.9664-3.4429,7.5428-6.4608.8442-.9884,1.7168-2.0106,2.56-2.9273a1.1781,1.1781,0,1,1,1.7344,1.5948c-.8135.8849-1.6719,1.89-2.5019,2.8626C928.0691,393.277,925.0344,396.8319,922.1293,396.8319Z" transform="translate(0 0.7026)"/><path class="cls-65" d="M948.6078,413.53a1.1509,1.1509,0,0,1-.2324-.023,1.1776,1.1776,0,0,1-.924-1.3862,8.9729,8.9729,0,0,1,2.3128-4.1847c.4661-.5416.9478-1.1016.9018-1.3785-.0456-.2746-.491-1.1131-3.6343-2.9619-5.4719-3.2188-7.87-5.5544-8.2792-8.061-.3536-2.1675.95-3.9648,1.9619-5.1282a5.1994,5.1994,0,0,0,.5382-5.9878c-.7928-1.1676-2.0578-1.4871-3.6538-.9221-1.2113.4273-2.764,2.0129-3.8269,3.1686a1.1781,1.1781,0,0,1-1.7344-1.5948c1.9864-2.1606,3.46-3.3317,4.7769-3.7962a5.2006,5.2006,0,0,1,6.3871,1.8193,7.5823,7.5823,0,0,1-.7089,8.86c-1.1276,1.2969-1.5641,2.2845-1.4142,3.2024.2712,1.6631,2.5427,3.7,7.1485,6.409,3.1479,1.8518,4.5284,3.1866,4.7639,4.6081.2263,1.3632-.621,2.3482-1.44,3.3a6.7014,6.7014,0,0,0-1.789,3.11A1.1785,1.1785,0,0,1,948.6078,413.53Z" transform="translate(0 0.7026)"/></g></g><g id="TOP-3" data-name="TOP" class="cls-42"><circle id="BG-5" data-name="BG" class="cls-66" cx="922.6183" cy="405.8656" r="53.8603"/><circle id="SHADOW-3" data-name="SHADOW" class="cls-67" cx="922.6183" cy="405.8656" r="53.8603"/><circle id="LIGHT-3" data-name="LIGHT" class="cls-68" cx="922.6183" cy="405.8656" r="53.8603"/></g><g id="OVERLAY-R-HSA-453279"><rect class="cls-25" x="837.3796" y="289.4665" width="172.689" height="30" rx="8"/><text class="cls-26" transform="translate(847.3793 308.7587)">MITOTIC G1-G1/S PHASES</text></g><g id="ANALINFO-R-HSA-453279" data-name="ANALINFO" class="cls-27"><rect class="cls-28" x="837.3796" y="269.2755" width="172.6888" height="20" rx="8"/><text id="_Group_7" data-name="&lt;Group&gt;" class="cls-29" transform="translate(904.3771 281.4423)">XXX/YYY</text></g></g><g id="REGION-R-HSA-68886" style="cursor: pointer;" transform="matrix(0.667341411113739,0,0,0.667341411113739,38.70580184459686,66.00646138953698)"><path id="MASK-7" data-name="MASK" class="cls-19" d="M1048.2385-.7026,743.7225,303.7541q-81.1735-62.478-153.3293,0L406.2652,119.5668l68.22.001V0Z" transform="translate(0 0.7026)"/><g id="_Group_8" data-name="&lt;Group&gt;" class="cls-30"><g id="R-ICO-013121-4" data-name="R-ICO-013121" class="cls-55"><circle class="cls-69" cx="711.3945" cy="232.1128" r="25.236"/><path class="cls-32" d="M706.1656,257.0461a26.1638,26.1638,0,1,1,30.8649-20.407A26.1928,26.1928,0,0,1,706.1656,257.0461Zm10.087-49.4537a24.3082,24.3082,0,1,0,18.96,28.6758A24.3319,24.3319,0,0,0,716.2526,207.5924Z" transform="translate(0 0.7026)"/></g><g id="Genetic_data-2" data-name="Genetic_data"><path class="cls-70" d="M691.9384,234.9144a1.1993,1.1993,0,0,1,.2555-2.374c2.8281.0334,7.9291-.979,10.31-8.1339,1.4388-4.3237,4.139-5.1713,5.62-5.2915a7.6176,7.6176,0,0,1,6.97,4.2538c.5027.9574.9581.9822,1.1109.9911,1.0206.0548,3.1146-1.473,5.49-5.0113,1.0418-1.5491,2.2341-1.0354,2.4634-.9173,2.0622,1.0656,1.75,6.78.5409,9.9654-1.3907,3.6659-4.0736,5.2958-7.3316,4.4644a1.1993,1.1993,0,0,1,.5889-2.3252,3.1481,3.1481,0,0,0,3.7138-1.4415c1.5047-2.2053,1.7363-5.8371,1.4954-7.6558-1.8944,2.6588-4.5156,5.455-7.09,5.3159a3.6972,3.6972,0,0,1-3.1055-2.2708,5.2524,5.2524,0,0,0-4.652-2.9782c-1.9719.16-3.0124,2.0778-3.5388,3.6584-2.9694,8.9216-9.8111,9.8076-12.6145,9.7745A1.2236,1.2236,0,0,1,691.9384,234.9144Z" transform="translate(0 0.7026)"/><path class="cls-71" d="M709.7271,250.6405q-.2493-.41-.4947-.873a1.15,1.15,0,1,1,2.0336-1.0749c1.1653,2.2019,2.0552,2.76,2.3964,2.7406.2524-.0135.6635-.4333,1.0124-1.3411,1.2129-3.1552.8489-9.6926-2.5147-13.1757-6.324-6.5614-2.443-13.0873.9834-18.8465.47-.79.9357-1.5724,1.37-2.3482,1.0495-1.8717,1.2771-3.3891.6022-4.0728-.8424-.8484-3.3044-.8682-6.2092.7654a8.489,8.489,0,0,0-3.4288,3.8436c-.6309,1.1632-1.2268,2.2627-2.5088,2.63-1.0758.3086-2.3617-.0046-4.1692-1.0153a1.1683,1.1683,0,0,1-.4577-1.5769,1.1432,1.1432,0,0,1,1.5653-.4451c1.5427.8626,2.1723.8774,2.41.8091.3627-.1045.72-.7623,1.1328-1.5249a10.6892,10.6892,0,0,1,4.3161-4.7449c3.5857-2.0174,7.1925-2.1659,8.9752-.37.8642.8713,1.9875,2.9227-.2159,6.8526-.4445.7923-.92,1.5922-1.4,2.399-3.2931,5.5365-6.4075,10.7609-1.3161,16.04,4.1563,4.3059,4.4224,11.9781,3.0174,15.6325-.9019,2.3466-2.28,2.7632-3.0222,2.8025C712.3954,253.8221,711.0262,252.7779,709.7271,250.6405Z" transform="translate(0 0.7026)"/></g></g><g id="_Group_9" data-name="&lt;Group&gt;" class="cls-30"><g id="R-ICO-013121-5" data-name="R-ICO-013121" class="cls-55"><circle class="cls-72" cx="776.6231" cy="165.8283" r="25.236"/><path class="cls-32" d="M771.3942,190.7616a26.1638,26.1638,0,1,1,30.8649-20.407A26.1928,26.1928,0,0,1,771.3942,190.7616Zm10.087-49.4537a24.3082,24.3082,0,1,0,18.96,28.6758A24.3318,24.3318,0,0,0,781.4812,141.3079Z" transform="translate(0 0.7026)"/></g><g id="Genetic_data-3" data-name="Genetic_data"><path class="cls-73" d="M771.944,146.5566a1.1993,1.1993,0,0,1,2.374.2556c-.0335,2.828.979,7.929,8.1338,10.31,4.3237,1.4389,5.1713,4.1391,5.2915,5.62a7.6178,7.6178,0,0,1-4.2537,6.97c-.9575.5026-.9823.9581-.9911,1.1109-.0548,1.0206,1.4729,3.1146,5.0112,5.49,1.5491,1.0418,1.0354,2.2342.9174,2.4635-1.0656,2.0622-6.78,1.75-9.9655.5409-3.6659-1.3907-5.2958-4.0736-4.4643-7.3317a1.1993,1.1993,0,0,1,2.3251.589,3.1479,3.1479,0,0,0,1.4416,3.7137c2.2052,1.5047,5.837,1.7364,7.6558,1.4954-2.6588-1.8944-5.4551-4.5156-5.3159-7.09a3.6971,3.6971,0,0,1,2.2707-3.1055,5.2522,5.2522,0,0,0,2.9782-4.652c-.16-1.9719-2.0778-3.0125-3.6584-3.5388-8.9216-2.97-9.8076-9.8111-9.7744-12.6145A1.2171,1.2171,0,0,1,771.944,146.5566Z" transform="translate(0 0.7026)"/><path class="cls-74" d="M756.2178,164.3453q.41-.2491.873-.4946a1.15,1.15,0,1,1,1.0749,2.0336c-2.2019,1.1653-2.7594,2.0552-2.7406,2.3963.0136.2524.4334.6635,1.3411,1.0124,3.1553,1.2129,9.6927.849,13.1757-2.5146,6.5615-6.3241,13.0874-2.443,18.8465.9833.79.47,1.5724.9358,2.3483,1.3705,1.8717,1.0495,3.389,1.2772,4.0728.6023.8484-.8424.8682-3.3044-.7654-6.2092a8.49,8.49,0,0,0-3.8437-3.4289c-1.1631-.6308-2.2626-1.2267-2.63-2.5088-.3086-1.0757.0047-2.3616,1.0153-4.1691a1.1683,1.1683,0,0,1,1.5769-.4578,1.1432,1.1432,0,0,1,.4451,1.5653c-.8626,1.5427-.8773,2.1724-.8091,2.41.1045.3627.7624.72,1.525,1.1329a10.689,10.689,0,0,1,4.7448,4.3161c2.0174,3.5857,2.1659,7.1925.37,8.9751-.8714.8643-2.9227,1.9876-6.8526-.2158-.7924-.4445-1.5922-.92-2.399-1.4-5.5366-3.293-10.761-6.4075-16.04-1.316-4.3058,4.1563-11.9781,4.4224-15.6324,3.0174-2.3467-.9019-2.7632-2.28-2.8025-3.0222C753.0362,167.0137,754.08,165.6445,756.2178,164.3453Z" transform="translate(0 0.7026)"/></g></g><g class="cls-30"><g id="R-ICO-012565"><path class="cls-75" d="M550.3965,199.2315a1.7433,1.7433,0,0,1-.269.3586l8.7088,8.7087a1.7767,1.7767,0,0,1-2.4973,2.5277l-8.724-8.7239a3.4985,3.4985,0,0,1-.0484-4.9752l.3629-.3629Z" transform="translate(0 0.7026)"/><path class="cls-76" d="M547.9043,196.7645l-.3138-.3138a3.5563,3.5563,0,0,1,0-5.0236l5.014-5.0153a1.7489,1.7489,0,0,1,2.4889.0242,1.7761,1.7761,0,0,1,0,2.5118l-4.9911,4.9911a1.7621,1.7621,0,0,1,.2694.3582Z" transform="translate(0 0.7026)"/></g><g id="R-ICO-012565-2" data-name="R-ICO-012565"><path class="cls-77" d="M550.3942,189.0054a1.7392,1.7392,0,0,1-.2689.3586l8.7087,8.7087a1.7766,1.7766,0,0,1-2.4972,2.5277l-8.724-8.7239a3.4984,3.4984,0,0,1-.0484-4.9752l.3629-.3629Z" transform="translate(0 0.7026)"/><path class="cls-78" d="M547.9273,186.5384l-.3138-.3138a3.5563,3.5563,0,0,1,0-5.0236l5.0139-5.0153a1.7489,1.7489,0,0,1,2.489.0242,1.7761,1.7761,0,0,1,0,2.5118l-4.9911,4.9911a1.7621,1.7621,0,0,1,.2694.3582Z" transform="translate(0 0.7026)"/></g><g id="R-ICO-012565-3" data-name="R-ICO-012565"><path class="cls-79" d="M550.3942,178.7793a1.7419,1.7419,0,0,1-.2689.3586l8.7087,8.7087a1.7766,1.7766,0,0,1-2.4972,2.5277l-8.724-8.7239a3.4984,3.4984,0,0,1-.0484-4.9752l.3629-.3629Z" transform="translate(0 0.7026)"/><path class="cls-80" d="M547.9273,176.3123l-.3138-.3138a3.5563,3.5563,0,0,1,0-5.0236l5.0139-5.0153a1.7489,1.7489,0,0,1,2.489.0242,1.7761,1.7761,0,0,1,0,2.5118l-4.9911,4.9911a1.7621,1.7621,0,0,1,.2694.3582Z" transform="translate(0 0.7026)"/></g><g id="R-ICO-012564"><path class="cls-81" d="M550.6341,148.1009a1.7428,1.7428,0,0,1-.2689.3586l8.7087,8.7088a1.7767,1.7767,0,0,1-2.4973,2.5277l-8.7239-8.724a3.4984,3.4984,0,0,1-.0484-4.9752l.3629-.3628Z" transform="translate(0 0.7026)"/><path class="cls-82" d="M548.1225,145.634l-.3138-.3138a3.5563,3.5563,0,0,1,0-5.0236l5.0139-5.0154a1.749,1.749,0,0,1,2.489.0243,1.7761,1.7761,0,0,1,0,2.5118l-4.9911,4.9911a1.7643,1.7643,0,0,1,.2694.3581Z" transform="translate(0 0.7026)"/></g><g id="R-ICO-012564-2" data-name="R-ICO-012564"><path class="cls-83" d="M550.6244,158.327a1.7433,1.7433,0,0,1-.269.3586l8.7088,8.7088a1.7767,1.7767,0,0,1-2.4973,2.5277l-8.724-8.7239a3.4985,3.4985,0,0,1-.0483-4.9753l.3628-.3628Z" transform="translate(0 0.7026)"/><path class="cls-84" d="M548.1574,155.86l-.3137-.3138a3.5563,3.5563,0,0,1,0-5.0236l5.0139-5.0154a1.749,1.749,0,0,1,2.489.0243,1.7763,1.7763,0,0,1,0,2.5118l-4.9912,4.9911a1.7584,1.7584,0,0,1,.2694.3582Z" transform="translate(0 0.7026)"/></g><g id="R-ICO-012564-3" data-name="R-ICO-012564"><path class="cls-85" d="M550.6244,168.5531a1.7466,1.7466,0,0,1-.269.3587l8.7088,8.7087a1.7767,1.7767,0,0,1-2.4973,2.5277l-8.724-8.7239a3.4984,3.4984,0,0,1-.0483-4.9752l.3628-.3629Z" transform="translate(0 0.7026)"/><path class="cls-86" d="M548.1574,166.0862l-.3137-.3138a3.5563,3.5563,0,0,1,0-5.0236l5.0139-5.0154a1.749,1.749,0,0,1,2.489.0243,1.7763,1.7763,0,0,1,0,2.5118l-4.9912,4.9911a1.7584,1.7584,0,0,1,.2694.3582Z" transform="translate(0 0.7026)"/></g><g id="R-ICO-013391-3" data-name="R-ICO-013391"><path class="cls-40" d="M547.9043,196.7645s-20.2709.635-20.2709-23.7086,15.4086-27.4219,20.4891-27.4219" transform="translate(0 0.7026)"/><path class="cls-40" d="M547.9273,186.5384c-2.9786,0-20.2939-1.2443-20.2939-13.4825s9.1409-17.1958,20.524-17.1958" transform="translate(0 0.7026)"/><path class="cls-40" d="M547.9273,176.3123c-3.96,0-20.2939.0173-20.2939-3.2564s2.9246-6.97,20.524-6.97" transform="translate(0 0.7026)"/></g><circle id="CENTROSOME-3" data-name="CENTROSOME" class="cls-87" cx="527.6334" cy="173.7586" r="3.0021"/></g><g class="cls-30"><g id="R-ICO-012565-4" data-name="R-ICO-012565"><path class="cls-88" d="M608.5012,199.2315a1.7433,1.7433,0,0,0,.269.3586l-8.7088,8.7087a1.7767,1.7767,0,0,0,2.4973,2.5277l8.724-8.7239a3.4986,3.4986,0,0,0,.0484-4.9752l-.3629-.3629Z" transform="translate(0 0.7026)"/><path class="cls-89" d="M610.9934,196.7645l.3138-.3138a3.5563,3.5563,0,0,0,0-5.0236l-5.014-5.0153a1.7489,1.7489,0,0,0-2.4889.0242,1.7761,1.7761,0,0,0,0,2.5118l4.9911,4.9911a1.7621,1.7621,0,0,0-.2694.3582Z" transform="translate(0 0.7026)"/></g><g id="R-ICO-012565-5" data-name="R-ICO-012565"><path class="cls-90" d="M608.5035,189.0054a1.7392,1.7392,0,0,0,.2689.3586l-8.7087,8.7087a1.7766,1.7766,0,0,0,2.4972,2.5277l8.724-8.7239a3.4984,3.4984,0,0,0,.0484-4.9752l-.3629-.3629Z" transform="translate(0 0.7026)"/><path class="cls-91" d="M610.97,186.5384l.3138-.3138a3.5563,3.5563,0,0,0,0-5.0236l-5.014-5.0153a1.7488,1.7488,0,0,0-2.4889.0242,1.7761,1.7761,0,0,0,0,2.5118l4.9911,4.9911a1.7621,1.7621,0,0,0-.2694.3582Z" transform="translate(0 0.7026)"/></g><g id="R-ICO-012565-6" data-name="R-ICO-012565"><path class="cls-92" d="M608.5035,178.7793a1.7419,1.7419,0,0,0,.2689.3586l-8.7087,8.7087a1.7766,1.7766,0,0,0,2.4972,2.5277l8.724-8.7239a3.4984,3.4984,0,0,0,.0484-4.9752l-.3629-.3629Z" transform="translate(0 0.7026)"/><path class="cls-93" d="M610.97,176.3123l.3138-.3138a3.5563,3.5563,0,0,0,0-5.0236L606.27,165.96a1.7488,1.7488,0,0,0-2.4889.0242,1.7761,1.7761,0,0,0,0,2.5118l4.9911,4.9911a1.7621,1.7621,0,0,0-.2694.3582Z" transform="translate(0 0.7026)"/></g><g id="R-ICO-012564-4" data-name="R-ICO-012564"><path class="cls-94" d="M608.2636,148.1009a1.7392,1.7392,0,0,0,.2689.3586l-8.7087,8.7088a1.7767,1.7767,0,0,0,2.4973,2.5277l8.7239-8.724a3.4984,3.4984,0,0,0,.0484-4.9752l-.3629-.3628Z" transform="translate(0 0.7026)"/><path class="cls-95" d="M610.7752,145.634l.3138-.3138a3.5563,3.5563,0,0,0,0-5.0236l-5.0139-5.0154a1.749,1.749,0,0,0-2.489.0243,1.7761,1.7761,0,0,0,0,2.5118l4.9911,4.9911a1.7643,1.7643,0,0,0-.2694.3581Z" transform="translate(0 0.7026)"/></g><g id="R-ICO-012564-5" data-name="R-ICO-012564"><path class="cls-96" d="M608.2733,158.327a1.7428,1.7428,0,0,0,.2689.3586l-8.7087,8.7088a1.7767,1.7767,0,0,0,2.4973,2.5277l8.724-8.7239a3.4986,3.4986,0,0,0,.0483-4.9753l-.3629-.3628Z" transform="translate(0 0.7026)"/><path class="cls-97" d="M610.74,155.86l.3138-.3138a3.5563,3.5563,0,0,0,0-5.0236l-5.0139-5.0154a1.749,1.749,0,0,0-2.489.0243,1.7763,1.7763,0,0,0,0,2.5118l4.9911,4.9911a1.7621,1.7621,0,0,0-.2694.3582Z" transform="translate(0 0.7026)"/></g><g id="R-ICO-012564-6" data-name="R-ICO-012564"><path class="cls-98" d="M609.2734,168.5531a1.7425,1.7425,0,0,0,.2689.3587l-8.7087,8.7087a1.7767,1.7767,0,0,0,2.4973,2.5277l8.7239-8.7239a3.4984,3.4984,0,0,0,.0484-4.9752l-.3629-.3629Z" transform="translate(0 0.7026)"/><path class="cls-99" d="M611.74,166.0862l.3138-.3138a3.5563,3.5563,0,0,0,0-5.0236l-5.0139-5.0154a1.749,1.749,0,0,0-2.489.0243,1.7761,1.7761,0,0,0,0,2.5118l4.9911,4.9911a1.7621,1.7621,0,0,0-.2694.3582Z" transform="translate(0 0.7026)"/></g><g id="R-ICO-013391-4" data-name="R-ICO-013391"><path class="cls-38" d="M610.9934,196.7645s20.2709.635,20.2709-23.7086-15.4087-27.4219-20.4891-27.4219" transform="translate(0 0.7026)"/><path class="cls-38" d="M610.97,186.5384c2.9786,0,20.2939-1.2443,20.2939-13.4825S622.1234,155.86,610.74,155.86" transform="translate(0 0.7026)"/><path class="cls-38" d="M610.97,176.3123c3.96,0,20.2939.0173,20.2939-3.2564s-2.9246-6.97-20.5241-6.97" transform="translate(0 0.7026)"/></g><circle id="CENTROSOME-4" data-name="CENTROSOME" class="cls-100" cx="631.2643" cy="173.7586" r="3.0021"/></g><g id="TOP-4" data-name="TOP" class="cls-42"><circle id="BG-6" data-name="BG" class="cls-101" cx="713.9364" cy="233.9191" r="36.9254"/><circle id="SHADOW-4" data-name="SHADOW" class="cls-102" cx="713.9364" cy="233.9191" r="36.9254"/><circle id="LIGHT-4" data-name="LIGHT" class="cls-103" cx="713.9364" cy="233.9191" r="36.9254"/></g><g id="TOP-5" data-name="TOP" class="cls-42"><circle id="BG-7" data-name="BG" class="cls-104" cx="777.856" cy="166.5145" r="36.9254"/><circle id="SHADOW-5" data-name="SHADOW" class="cls-105" cx="777.856" cy="166.5145" r="36.9254"/><circle id="LIGHT-5" data-name="LIGHT" class="cls-106" cx="777.856" cy="166.5145" r="36.9254"/></g><g id="TOP-6" data-name="TOP" class="cls-42"><path id="BG-8" data-name="BG" class="cls-107" d="M599.4556,133.1234a39.8455,39.8455,0,0,0-20.023,5.3708,40.0459,40.0459,0,1,0,0,69.35,40.0439,40.0439,0,1,0,20.023-74.7211Z" transform="translate(0 0.7026)"/><g id="INNER_SHADOWS"><g class="cls-108"><circle class="cls-109" cx="599.4192" cy="173.6528" r="40.0459"/></g><g class="cls-110"><circle class="cls-111" cx="559.3733" cy="173.872" r="40.0459"/></g></g><g id="LIGHTS" class="cls-42"><circle class="cls-112" cx="559.3764" cy="173.872" r="40.0459"/><circle class="cls-113" cx="599.4192" cy="173.872" r="40.0459"/></g></g><g id="OVERLAY-R-HSA-68886"><rect class="cls-25" x="577.5136" y="76.7088" width="170" height="30" rx="8"/><text class="cls-26" transform="translate(635.1767 96.0008)">M PHASE</text></g><g id="ANALINFO-R-HSA-68886" data-name="ANALINFO" class="cls-27"><rect class="cls-28" x="577.5136" y="56.7088" width="170" height="20" rx="8"/><text id="_Group_10" data-name="&lt;Group&gt;" class="cls-29" transform="translate(643.1667 68.8755)">XXX/YYY</text></g></g></svg>